<svg version="1.1" xmlns="http://www.w3.org/2000/svg" viewBox="0 0 382.17461210647605 244.15357809246575" width="764.3492242129521" height="488.3071561849315">
  <!-- svg-source:excalidraw -->
  
  <defs>
    <style class="style-fonts">
      
    </style>
    
  </defs>
  <rect x="0" y="0" width="382.17461210647605" height="244.15357809246575" fill="#ffffff"></rect><g stroke-linecap="round"><g transform="translate(29.262270121742063 233.0647802624851) rotate(0 171 -0.5)"><path d="M-0.77 -1.03 C56.34 -1.08, 285.98 -1.45, 342.91 -1.34 M1.03 1.05 C58.03 1.26, 285.43 0.58, 342.44 0.02" stroke="#1e1e1e" stroke-width="2" fill="none"></path></g></g><mask></mask><g stroke-linecap="round"><g transform="translate(84.26227012174206 11.064780262485101) rotate(0 -0.5954486923585591 92.5)"><path d="M0.11 -1.06 C-0.1 29.69, -0.41 154.76, -0.8 185.6 M-1.29 0.99 C-1.66 31.9, -1.78 153.16, -1.54 183.79" stroke="#1e1e1e" stroke-width="2" fill="none"></path></g></g><mask></mask><g stroke-linecap="round"><g transform="translate(84.26227012174206 194.0647802624851) rotate(0 -17 19)"><path d="M0.46 -0.36 C-5.17 5.96, -28.69 31.61, -34.54 38.18 M-0.76 -1.59 C-6.52 4.93, -29.94 33.34, -35.77 39.81" stroke="#1e1e1e" stroke-width="2" fill="none"></path></g></g><mask></mask><g stroke-linecap="round"><g transform="translate(84.26227012174206 195.0647802624851) rotate(0 20 17)"><path d="M-0.93 1.01 C5.45 6.72, 32.09 28.02, 38.84 33.39 M0.78 0.5 C7.47 6.43, 34.65 29, 40.95 34.61" stroke="#1e1e1e" stroke-width="2" fill="none"></path></g></g><mask></mask><g stroke-linecap="round"><g transform="translate(81.26227012174206 196.0647802624851) rotate(0 1.5 17)"><path d="M0.36 -0.38 C0.82 5.24, 2.33 28.03, 2.74 33.8 M-0.12 0.61 C0.24 6.3, 1.76 28.94, 2.17 34.4" stroke="#1e1e1e" stroke-width="2" fill="none"></path></g></g><mask></mask><g stroke-linecap="round"><g transform="translate(11.262270121742063 42.0647802624851) rotate(0 143.5 -1.5)"><path d="M0.13 1.1 C48.07 0.95, 240 -1.35, 287.69 -1.96 M-1.26 0.64 C46.57 0.26, 238.76 -2.66, 287.1 -3.53" stroke="#1e1e1e" stroke-width="2" fill="none"></path></g></g><mask></mask><g stroke-linecap="round"><g transform="translate(88.26227012174206 85.0647802624851) rotate(0 29.5 -21.5)"><path d="M-0.19 0.3 C9.5 -6.85, 48.59 -36.34, 58.27 -43.6 M-1.76 -0.59 C8.32 -7.53, 50.27 -35.47, 60.6 -42.38" stroke="#1e1e1e" stroke-width="2" fill="none"></path></g></g><mask></mask></svg>