<svg version="1.1" xmlns="http://www.w3.org/2000/svg" viewBox="0 0 382.17461210647605 244.15357809246575" width="764.3492242129521" height="488.3071561849315">
  <!-- svg-source:excalidraw -->
  
  <defs>
    <style class="style-fonts">
      
    </style>
    
  </defs>
  <rect x="0" y="0" width="382.17461210647605" height="244.15357809246575" fill="#ffffff"></rect><g stroke-linecap="round"><g transform="translate(29.262270121742063 233.0647802624851) rotate(0 171 -0.5)"><path d="M-0.77 -1.03 C56.34 -1.08, 285.98 -1.45, 342.91 -1.34 M1.03 1.05 C58.03 1.26, 285.43 0.58, 342.44 0.02" stroke="#1e1e1e" stroke-width="2" fill="none"></path></g></g><mask></mask><g stroke-linecap="round"><g transform="translate(84.26227012174206 11.064780262485101) rotate(0 -0.5954486923585591 92.5)"><path d="M0.11 -1.06 C-0.1 29.69, -0.41 154.76, -0.8 185.6 M-1.29 0.99 C-1.66 31.9, -1.78 153.16, -1.54 183.79" stroke="#1e1e1e" stroke-width="2" fill="none"></path></g></g><mask></mask><g stroke-linecap="round"><g transform="translate(84.26227012174206 194.0647802624851) rotate(0 -17 19)"><path d="M0.46 -0.36 C-5.17 5.96, -28.69 31.61, -34.54 38.18 M-0.76 -1.59 C-6.52 4.93, -29.94 33.34, -35.77 39.81" stroke="#1e1e1e" stroke-width="2" fill="none"></path></g></g><mask></mask><g stroke-linecap="round"><g transform="translate(84.26227012174206 195.0647802624851) rotate(0 20 17)"><path d="M-0.93 1.01 C5.45 6.72, 32.09 28.02, 38.84 33.39 M0.78 0.5 C7.47 6.43, 34.65 29, 40.95 34.61" stroke="#1e1e1e" stroke-width="2" fill="none"></path></g></g><mask></mask><g stroke-linecap="round"><g transform="translate(81.26227012174206 196.0647802624851) rotate(0 1.5 17)"><path d="M0.36 -0.38 C0.82 5.24, 2.33 28.03, 2.74 33.8 M-0.12 0.61 C0.24 6.3, 1.76 28.94, 2.17 34.4" stroke="#1e1e1e" stroke-width="2" fill="none"></path></g></g><mask></mask><g stroke-linecap="round"><g transform="translate(11.262270121742063 42.0647802624851) rotate(0 143.5 -1.5)"><path d="M0.13 1.1 C48.07 0.95, 240 -1.35, 287.69 -1.96 M-1.26 0.64 C46.57 0.26, 238.76 -2.66, 287.1 -3.53" stroke="#1e1e1e" stroke-width="2" fill="none"></path></g></g><mask></mask><g stroke-linecap="round"><g transform="translate(88.26227012174206 85.0647802624851) rotate(0 29.5 -21.5)"><path d="M-0.19 0.3 C9.5 -6.85, 48.59 -36.34, 58.27 -43.6 M-1.76 -0.59 C8.32 -7.53, 50.27 -35.47, 60.6 -42.38" stroke="#1e1e1e" stroke-width="2" fill="none"></path></g></g><mask></mask><g stroke-linecap="round"><g transform="translate(251.26227012174206 43.0647802624851) rotate(0 0 19)"><path d="M-0.04 0.1 C0.02 6.46, 0.13 31.52, 0.13 37.75 M-0.72 -0.32 C-0.71 6.15, -0.29 31.97, -0.23 38.32" stroke="#1e1e1e" stroke-width="2" fill="none"></path></g></g><mask></mask><g stroke-linecap="round" transform="translate(234.26227012174206 82.0647802624851) rotate(0 18 16.5)"><path d="M20.51 0.48 C24.16 0.63, 29 2.71, 31.66 5.23 C34.32 7.76, 36.41 12.12, 36.49 15.63 C36.56 19.14, 34.56 23.5, 32.11 26.27 C29.66 29.04, 25.51 31.45, 21.79 32.24 C18.07 33.04, 13.2 32.6, 9.78 31.05 C6.36 29.5, 2.83 26.26, 1.28 22.94 C-0.27 19.63, -0.8 14.63, 0.45 11.16 C1.71 7.69, 5.25 3.86, 8.82 2.12 C12.4 0.37, 19.71 0.89, 21.9 0.67 C24.09 0.45, 22.03 0.55, 21.97 0.82 M19.44 0.8 C23 1.1, 28.32 3.52, 31.04 5.95 C33.75 8.37, 35.58 12.06, 35.72 15.36 C35.86 18.66, 34.26 22.82, 31.89 25.73 C29.52 28.65, 25.26 32.05, 21.5 32.86 C17.75 33.67, 12.67 32.24, 9.37 30.58 C6.08 28.92, 3.19 26.11, 1.72 22.9 C0.25 19.69, -0.61 14.75, 0.56 11.3 C1.72 7.85, 5.35 4.15, 8.7 2.19 C12.05 0.23, 18.76 -0.08, 20.65 -0.47 C22.53 -0.86, 20.16 -0.44, 20.02 -0.14" stroke="#1e1e1e" stroke-width="2" fill="none"></path></g><g stroke-linecap="round"><g transform="translate(252.26227012174206 116.0647802624851) rotate(0 0.5 25)"><path d="M0.39 0.4 C0.42 8.79, 0.54 41.85, 0.44 50.21 M-0.86 -0.44 C-1.06 7.58, -1.29 40.04, -0.8 48.2" stroke="#1e1e1e" stroke-width="2" fill="none"></path></g></g><mask></mask><g stroke-linecap="round"><g transform="translate(254.26227012174206 116.0647802624851) rotate(0 19 13.5)"><path d="M-1.07 0.21 C5.34 4.83, 31.69 23.48, 38.13 28.13 M0.57 -0.73 C6.86 3.55, 31.25 22.09, 37.24 26.6" stroke="#1e1e1e" stroke-width="2" fill="none"></path></g></g><mask></mask><g stroke-linecap="round"><g transform="translate(253.26227012174206 116.0647802624851) rotate(0 -17.5 12.5)"><path d="M0.32 -0.97 C-5.33 3.4, -28.21 21.24, -34.27 25.59 M-0.97 1.13 C-6.68 5.2, -29.38 19.55, -34.84 23.78" stroke="#1e1e1e" stroke-width="2" fill="none"></path></g></g><mask></mask></svg>